<mxfile host="app.diagrams.net" agent="Mozilla/5.0 (Windows NT 10.0; Win64; x64) AppleWebKit/537.36 (KHTML, like Gecko) Chrome/135.0.0.0 Safari/537.36" version="26.2.14">
  <diagram name="Página-1" id="pXQT550biOeJ7bFWaw0l">
    <mxGraphModel dx="1426" dy="2081" grid="1" gridSize="10" guides="1" tooltips="1" connect="1" arrows="1" fold="1" page="1" pageScale="1" pageWidth="827" pageHeight="1169" math="0" shadow="0">
      <root>
        <mxCell id="0" />
        <mxCell id="1" parent="0" />
        <mxCell id="hYtReZl3mpRaKV171oG1-41" value="" style="edgeStyle=orthogonalEdgeStyle;rounded=0;orthogonalLoop=1;jettySize=auto;html=1;" edge="1" parent="1" source="hYtReZl3mpRaKV171oG1-1" target="hYtReZl3mpRaKV171oG1-3">
          <mxGeometry relative="1" as="geometry" />
        </mxCell>
        <mxCell id="hYtReZl3mpRaKV171oG1-1" value="SOLDADO" style="ellipse;whiteSpace=wrap;html=1;aspect=fixed;fillColor=#008a00;fontColor=#ffffff;strokeColor=#005700;" vertex="1" parent="1">
          <mxGeometry x="370" y="355" width="80" height="80" as="geometry" />
        </mxCell>
        <mxCell id="hYtReZl3mpRaKV171oG1-3" value="Código de Soldado" style="ellipse;whiteSpace=wrap;html=1;aspect=fixed;" vertex="1" parent="1">
          <mxGeometry x="375" y="480" width="70" height="70" as="geometry" />
        </mxCell>
        <mxCell id="hYtReZl3mpRaKV171oG1-5" value="Nombre" style="ellipse;whiteSpace=wrap;html=1;aspect=fixed;" vertex="1" parent="1">
          <mxGeometry x="280" y="400" width="55" height="55" as="geometry" />
        </mxCell>
        <mxCell id="hYtReZl3mpRaKV171oG1-7" value="Apellidos" style="ellipse;whiteSpace=wrap;html=1;aspect=fixed;" vertex="1" parent="1">
          <mxGeometry x="305" y="290" width="60" height="60" as="geometry" />
        </mxCell>
        <mxCell id="hYtReZl3mpRaKV171oG1-9" value="Grado" style="ellipse;whiteSpace=wrap;html=1;aspect=fixed;" vertex="1" parent="1">
          <mxGeometry x="450" y="440" width="60" height="60" as="geometry" />
        </mxCell>
        <mxCell id="hYtReZl3mpRaKV171oG1-10" value="" style="endArrow=classic;html=1;rounded=0;entryX=0;entryY=0;entryDx=0;entryDy=0;exitX=1;exitY=1;exitDx=0;exitDy=0;" edge="1" parent="1" source="hYtReZl3mpRaKV171oG1-1" target="hYtReZl3mpRaKV171oG1-9">
          <mxGeometry width="50" height="50" relative="1" as="geometry">
            <mxPoint x="390" y="430" as="sourcePoint" />
            <mxPoint x="440" y="380" as="targetPoint" />
          </mxGeometry>
        </mxCell>
        <mxCell id="hYtReZl3mpRaKV171oG1-14" style="edgeStyle=orthogonalEdgeStyle;rounded=0;orthogonalLoop=1;jettySize=auto;html=1;exitX=1;exitY=0.5;exitDx=0;exitDy=0;" edge="1" parent="1" source="hYtReZl3mpRaKV171oG1-11" target="hYtReZl3mpRaKV171oG1-15">
          <mxGeometry relative="1" as="geometry">
            <mxPoint x="749.5" y="155" as="targetPoint" />
          </mxGeometry>
        </mxCell>
        <mxCell id="hYtReZl3mpRaKV171oG1-11" value="CUARTELES" style="ellipse;whiteSpace=wrap;html=1;aspect=fixed;fillColor=#76608a;fontColor=#ffffff;strokeColor=#432D57;" vertex="1" parent="1">
          <mxGeometry x="629.5" y="115" width="80" height="80" as="geometry" />
        </mxCell>
        <mxCell id="hYtReZl3mpRaKV171oG1-13" value="Código de Cuartel" style="ellipse;whiteSpace=wrap;html=1;aspect=fixed;" vertex="1" parent="1">
          <mxGeometry x="590" width="70" height="70" as="geometry" />
        </mxCell>
        <mxCell id="hYtReZl3mpRaKV171oG1-15" value="Nombre" style="ellipse;whiteSpace=wrap;html=1;aspect=fixed;" vertex="1" parent="1">
          <mxGeometry x="739.5" y="127.5" width="55" height="55" as="geometry" />
        </mxCell>
        <mxCell id="hYtReZl3mpRaKV171oG1-16" value="Ubicacion" style="ellipse;whiteSpace=wrap;html=1;aspect=fixed;" vertex="1" parent="1">
          <mxGeometry x="729.5" y="50" width="60" height="60" as="geometry" />
        </mxCell>
        <mxCell id="hYtReZl3mpRaKV171oG1-17" value="" style="endArrow=classic;html=1;rounded=0;entryX=0;entryY=1;entryDx=0;entryDy=0;exitX=1;exitY=0;exitDx=0;exitDy=0;" edge="1" parent="1" source="hYtReZl3mpRaKV171oG1-11" target="hYtReZl3mpRaKV171oG1-16">
          <mxGeometry width="50" height="50" relative="1" as="geometry">
            <mxPoint x="929.5" y="190" as="sourcePoint" />
            <mxPoint x="979.5" y="140" as="targetPoint" />
          </mxGeometry>
        </mxCell>
        <mxCell id="hYtReZl3mpRaKV171oG1-21" style="edgeStyle=orthogonalEdgeStyle;rounded=0;orthogonalLoop=1;jettySize=auto;html=1;exitX=1;exitY=0.5;exitDx=0;exitDy=0;" edge="1" parent="1" source="hYtReZl3mpRaKV171oG1-18" target="hYtReZl3mpRaKV171oG1-22">
          <mxGeometry relative="1" as="geometry">
            <mxPoint x="767.5" y="398" as="targetPoint" />
          </mxGeometry>
        </mxCell>
        <mxCell id="hYtReZl3mpRaKV171oG1-18" value="CUERPOS DEL EJERCITO" style="ellipse;whiteSpace=wrap;html=1;aspect=fixed;fillColor=#a0522d;fontColor=#ffffff;strokeColor=#6D1F00;" vertex="1" parent="1">
          <mxGeometry x="610" y="355" width="85" height="85" as="geometry" />
        </mxCell>
        <mxCell id="hYtReZl3mpRaKV171oG1-22" value="Código de Cuerpo" style="ellipse;whiteSpace=wrap;html=1;aspect=fixed;" vertex="1" parent="1">
          <mxGeometry x="727.5" y="364" width="67" height="67" as="geometry" />
        </mxCell>
        <mxCell id="hYtReZl3mpRaKV171oG1-24" value="Denominacion" style="ellipse;whiteSpace=wrap;html=1;aspect=fixed;" vertex="1" parent="1">
          <mxGeometry x="697.5" y="265" width="80" height="80" as="geometry" />
        </mxCell>
        <mxCell id="hYtReZl3mpRaKV171oG1-25" value="" style="endArrow=classic;html=1;rounded=0;exitX=1;exitY=0;exitDx=0;exitDy=0;entryX=0;entryY=1;entryDx=0;entryDy=0;" edge="1" parent="1" source="hYtReZl3mpRaKV171oG1-18" target="hYtReZl3mpRaKV171oG1-24">
          <mxGeometry width="50" height="50" relative="1" as="geometry">
            <mxPoint x="917.5" y="155" as="sourcePoint" />
            <mxPoint x="717.5" y="335" as="targetPoint" />
          </mxGeometry>
        </mxCell>
        <mxCell id="hYtReZl3mpRaKV171oG1-27" style="edgeStyle=orthogonalEdgeStyle;rounded=0;orthogonalLoop=1;jettySize=auto;html=1;exitX=0.5;exitY=0;exitDx=0;exitDy=0;" edge="1" parent="1" source="hYtReZl3mpRaKV171oG1-26" target="hYtReZl3mpRaKV171oG1-30">
          <mxGeometry relative="1" as="geometry">
            <mxPoint x="410" y="60" as="targetPoint" />
          </mxGeometry>
        </mxCell>
        <mxCell id="hYtReZl3mpRaKV171oG1-26" value="COMPAÑIAS" style="ellipse;whiteSpace=wrap;html=1;aspect=fixed;fillColor=#647687;fontColor=#ffffff;strokeColor=#314354;" vertex="1" parent="1">
          <mxGeometry x="365" y="-40" width="90" height="90" as="geometry" />
        </mxCell>
        <mxCell id="hYtReZl3mpRaKV171oG1-30" value="Numero de Compañia" style="ellipse;whiteSpace=wrap;html=1;aspect=fixed;" vertex="1" parent="1">
          <mxGeometry x="375" y="-240" width="70" height="70" as="geometry" />
        </mxCell>
        <mxCell id="hYtReZl3mpRaKV171oG1-32" value="Actividad Principal que Realiza" style="ellipse;whiteSpace=wrap;html=1;aspect=fixed;" vertex="1" parent="1">
          <mxGeometry x="470" y="-140" width="80" height="80" as="geometry" />
        </mxCell>
        <mxCell id="hYtReZl3mpRaKV171oG1-34" style="edgeStyle=orthogonalEdgeStyle;rounded=0;orthogonalLoop=1;jettySize=auto;html=1;exitX=0.5;exitY=0;exitDx=0;exitDy=0;" edge="1" parent="1" source="hYtReZl3mpRaKV171oG1-33" target="hYtReZl3mpRaKV171oG1-35">
          <mxGeometry relative="1" as="geometry">
            <mxPoint x="130" y="310" as="targetPoint" />
          </mxGeometry>
        </mxCell>
        <mxCell id="hYtReZl3mpRaKV171oG1-64" value="" style="edgeStyle=orthogonalEdgeStyle;rounded=0;orthogonalLoop=1;jettySize=auto;html=1;" edge="1" parent="1" source="hYtReZl3mpRaKV171oG1-33" target="hYtReZl3mpRaKV171oG1-37">
          <mxGeometry relative="1" as="geometry" />
        </mxCell>
        <mxCell id="hYtReZl3mpRaKV171oG1-33" value="SERVICIOS" style="ellipse;whiteSpace=wrap;html=1;aspect=fixed;fillColor=#1ba1e2;fontColor=#ffffff;strokeColor=#006EAF;" vertex="1" parent="1">
          <mxGeometry x="90" y="355" width="80" height="80" as="geometry" />
        </mxCell>
        <mxCell id="hYtReZl3mpRaKV171oG1-35" value="Código de Servicio" style="ellipse;whiteSpace=wrap;html=1;aspect=fixed;" vertex="1" parent="1">
          <mxGeometry x="95" y="260" width="70" height="70" as="geometry" />
        </mxCell>
        <mxCell id="hYtReZl3mpRaKV171oG1-37" value="Actividad" style="ellipse;whiteSpace=wrap;html=1;aspect=fixed;" vertex="1" parent="1">
          <mxGeometry x="10" y="367.5" width="55" height="55" as="geometry" />
        </mxCell>
        <mxCell id="hYtReZl3mpRaKV171oG1-56" value="" style="endArrow=classic;html=1;rounded=0;entryX=0;entryY=1;entryDx=0;entryDy=0;exitX=1;exitY=0;exitDx=0;exitDy=0;" edge="1" parent="1" source="hYtReZl3mpRaKV171oG1-26" target="hYtReZl3mpRaKV171oG1-32">
          <mxGeometry width="50" height="50" relative="1" as="geometry">
            <mxPoint x="390" y="330" as="sourcePoint" />
            <mxPoint x="440" y="280" as="targetPoint" />
          </mxGeometry>
        </mxCell>
        <mxCell id="hYtReZl3mpRaKV171oG1-60" value="" style="endArrow=classic;html=1;rounded=0;entryX=1;entryY=1;entryDx=0;entryDy=0;exitX=0;exitY=0;exitDx=0;exitDy=0;" edge="1" parent="1" source="hYtReZl3mpRaKV171oG1-1" target="hYtReZl3mpRaKV171oG1-7">
          <mxGeometry width="50" height="50" relative="1" as="geometry">
            <mxPoint x="390" y="330" as="sourcePoint" />
            <mxPoint x="440" y="280" as="targetPoint" />
          </mxGeometry>
        </mxCell>
        <mxCell id="hYtReZl3mpRaKV171oG1-65" value="" style="endArrow=classic;html=1;rounded=0;entryX=1;entryY=0.5;entryDx=0;entryDy=0;exitX=0;exitY=1;exitDx=0;exitDy=0;" edge="1" parent="1" source="hYtReZl3mpRaKV171oG1-1" target="hYtReZl3mpRaKV171oG1-5">
          <mxGeometry width="50" height="50" relative="1" as="geometry">
            <mxPoint x="390" y="330" as="sourcePoint" />
            <mxPoint x="440" y="280" as="targetPoint" />
          </mxGeometry>
        </mxCell>
        <mxCell id="hYtReZl3mpRaKV171oG1-117" style="edgeStyle=orthogonalEdgeStyle;rounded=0;orthogonalLoop=1;jettySize=auto;html=1;exitX=0.5;exitY=0;exitDx=0;exitDy=0;entryX=0.5;entryY=1;entryDx=0;entryDy=0;" edge="1" parent="1" source="hYtReZl3mpRaKV171oG1-69" target="hYtReZl3mpRaKV171oG1-112">
          <mxGeometry relative="1" as="geometry" />
        </mxCell>
        <mxCell id="hYtReZl3mpRaKV171oG1-69" value="" style="rhombus;whiteSpace=wrap;html=1;" vertex="1" parent="1">
          <mxGeometry x="230" y="330" width="60" height="65" as="geometry" />
        </mxCell>
        <mxCell id="hYtReZl3mpRaKV171oG1-73" value="" style="rhombus;whiteSpace=wrap;html=1;" vertex="1" parent="1">
          <mxGeometry x="510" y="15" width="60" height="65" as="geometry" />
        </mxCell>
        <mxCell id="hYtReZl3mpRaKV171oG1-77" value="" style="endArrow=none;html=1;rounded=0;exitX=0;exitY=0.5;exitDx=0;exitDy=0;entryX=1;entryY=0.5;entryDx=0;entryDy=0;" edge="1" parent="1" source="hYtReZl3mpRaKV171oG1-73" target="hYtReZl3mpRaKV171oG1-73">
          <mxGeometry width="50" height="50" relative="1" as="geometry">
            <mxPoint x="520" y="253" as="sourcePoint" />
            <mxPoint x="580" y="253" as="targetPoint" />
          </mxGeometry>
        </mxCell>
        <mxCell id="hYtReZl3mpRaKV171oG1-78" value="" style="endArrow=none;html=1;rounded=0;exitX=0;exitY=0.5;exitDx=0;exitDy=0;entryX=1;entryY=0.5;entryDx=0;entryDy=0;" edge="1" parent="1" source="hYtReZl3mpRaKV171oG1-69" target="hYtReZl3mpRaKV171oG1-69">
          <mxGeometry width="50" height="50" relative="1" as="geometry">
            <mxPoint x="520" y="133" as="sourcePoint" />
            <mxPoint x="580" y="133" as="targetPoint" />
          </mxGeometry>
        </mxCell>
        <mxCell id="hYtReZl3mpRaKV171oG1-94" value="Varios" style="text;html=1;align=center;verticalAlign=middle;whiteSpace=wrap;rounded=0;fontColor=light-dark(#000000,#FF3333);" vertex="1" parent="1">
          <mxGeometry x="510" y="40" width="60" height="30" as="geometry" />
        </mxCell>
        <mxCell id="hYtReZl3mpRaKV171oG1-96" value="Varios" style="text;html=1;align=center;verticalAlign=middle;whiteSpace=wrap;rounded=0;fontColor=light-dark(#000000,#FF3333);" vertex="1" parent="1">
          <mxGeometry x="510" y="20" width="60" height="30" as="geometry" />
        </mxCell>
        <mxCell id="hYtReZl3mpRaKV171oG1-98" value="" style="endArrow=classic;startArrow=classic;html=1;rounded=0;entryX=0;entryY=0.5;entryDx=0;entryDy=0;exitX=1;exitY=0.5;exitDx=0;exitDy=0;" edge="1" parent="1" source="hYtReZl3mpRaKV171oG1-26" target="hYtReZl3mpRaKV171oG1-11">
          <mxGeometry width="50" height="50" relative="1" as="geometry">
            <mxPoint x="390" y="330" as="sourcePoint" />
            <mxPoint x="440" y="280" as="targetPoint" />
          </mxGeometry>
        </mxCell>
        <mxCell id="hYtReZl3mpRaKV171oG1-106" value="Varios" style="text;html=1;align=center;verticalAlign=middle;whiteSpace=wrap;rounded=0;fontColor=light-dark(#000000,#FF3333);" vertex="1" parent="1">
          <mxGeometry x="230" y="337.5" width="60" height="30" as="geometry" />
        </mxCell>
        <mxCell id="hYtReZl3mpRaKV171oG1-107" value="Varios" style="text;html=1;align=center;verticalAlign=middle;whiteSpace=wrap;rounded=0;fontColor=light-dark(#000000,#FF3333);" vertex="1" parent="1">
          <mxGeometry x="230" y="355" width="60" height="30" as="geometry" />
        </mxCell>
        <mxCell id="hYtReZl3mpRaKV171oG1-109" value="" style="endArrow=classic;startArrow=classic;html=1;rounded=0;exitX=1;exitY=0.5;exitDx=0;exitDy=0;entryX=0;entryY=0.5;entryDx=0;entryDy=0;" edge="1" parent="1" source="hYtReZl3mpRaKV171oG1-33" target="hYtReZl3mpRaKV171oG1-1">
          <mxGeometry width="50" height="50" relative="1" as="geometry">
            <mxPoint x="390" y="330" as="sourcePoint" />
            <mxPoint x="440" y="280" as="targetPoint" />
          </mxGeometry>
        </mxCell>
        <mxCell id="hYtReZl3mpRaKV171oG1-112" value="Ser_Sol" style="ellipse;whiteSpace=wrap;html=1;aspect=fixed;fillColor=#6d8764;strokeColor=#3A5431;fontColor=#ffffff;" vertex="1" parent="1">
          <mxGeometry x="228.75" y="215" width="62.5" height="62.5" as="geometry" />
        </mxCell>
        <mxCell id="hYtReZl3mpRaKV171oG1-118" value="Com_Cua" style="ellipse;whiteSpace=wrap;html=1;aspect=fixed;fillColor=#6d8764;strokeColor=#3A5431;fontColor=#ffffff;" vertex="1" parent="1">
          <mxGeometry x="642" y="-160" width="62.5" height="62.5" as="geometry" />
        </mxCell>
        <mxCell id="hYtReZl3mpRaKV171oG1-120" value="" style="endArrow=classic;html=1;rounded=0;entryX=0.5;entryY=1;entryDx=0;entryDy=0;exitX=0.5;exitY=0;exitDx=0;exitDy=0;" edge="1" parent="1" source="hYtReZl3mpRaKV171oG1-73" target="hYtReZl3mpRaKV171oG1-118">
          <mxGeometry width="50" height="50" relative="1" as="geometry">
            <mxPoint x="390" y="330" as="sourcePoint" />
            <mxPoint x="440" y="280" as="targetPoint" />
          </mxGeometry>
        </mxCell>
        <mxCell id="hYtReZl3mpRaKV171oG1-128" value="ID: Ser" style="text;html=1;align=center;verticalAlign=middle;whiteSpace=wrap;rounded=0;fontSize=14;fontStyle=1" vertex="1" parent="1">
          <mxGeometry x="120" y="192.5" width="60" height="30" as="geometry" />
        </mxCell>
        <mxCell id="hYtReZl3mpRaKV171oG1-129" value="ID: Sol" style="text;html=1;align=center;verticalAlign=middle;whiteSpace=wrap;rounded=0;fontSize=14;fontStyle=1" vertex="1" parent="1">
          <mxGeometry x="190" y="155" width="60" height="30" as="geometry" />
        </mxCell>
        <mxCell id="hYtReZl3mpRaKV171oG1-131" value="" style="endArrow=classic;html=1;rounded=0;entryX=1;entryY=0.5;entryDx=0;entryDy=0;exitX=0;exitY=0;exitDx=0;exitDy=0;" edge="1" parent="1" source="hYtReZl3mpRaKV171oG1-112" target="hYtReZl3mpRaKV171oG1-128">
          <mxGeometry width="50" height="50" relative="1" as="geometry">
            <mxPoint x="390" y="330" as="sourcePoint" />
            <mxPoint x="440" y="280" as="targetPoint" />
          </mxGeometry>
        </mxCell>
        <mxCell id="hYtReZl3mpRaKV171oG1-132" value="" style="endArrow=classic;html=1;rounded=0;entryX=0.75;entryY=1;entryDx=0;entryDy=0;exitX=0.5;exitY=0;exitDx=0;exitDy=0;" edge="1" parent="1" source="hYtReZl3mpRaKV171oG1-112" target="hYtReZl3mpRaKV171oG1-129">
          <mxGeometry width="50" height="50" relative="1" as="geometry">
            <mxPoint x="248" y="234" as="sourcePoint" />
            <mxPoint x="200" y="218" as="targetPoint" />
          </mxGeometry>
        </mxCell>
        <mxCell id="hYtReZl3mpRaKV171oG1-140" value="ID: Com" style="text;html=1;align=center;verticalAlign=middle;whiteSpace=wrap;rounded=0;fontSize=14;fontStyle=1" vertex="1" parent="1">
          <mxGeometry x="634.5" y="-230" width="60" height="30" as="geometry" />
        </mxCell>
        <mxCell id="hYtReZl3mpRaKV171oG1-141" value="ID: Cua" style="text;html=1;align=center;verticalAlign=middle;whiteSpace=wrap;rounded=0;fontSize=14;fontStyle=1" vertex="1" parent="1">
          <mxGeometry x="717.5" y="-200" width="60" height="30" as="geometry" />
        </mxCell>
        <mxCell id="hYtReZl3mpRaKV171oG1-142" value="" style="endArrow=classic;html=1;rounded=0;entryX=0.5;entryY=1;entryDx=0;entryDy=0;exitX=0.5;exitY=0;exitDx=0;exitDy=0;" edge="1" parent="1" source="hYtReZl3mpRaKV171oG1-118" target="hYtReZl3mpRaKV171oG1-140">
          <mxGeometry width="50" height="50" relative="1" as="geometry">
            <mxPoint x="390" y="330" as="sourcePoint" />
            <mxPoint x="440" y="280" as="targetPoint" />
          </mxGeometry>
        </mxCell>
        <mxCell id="hYtReZl3mpRaKV171oG1-144" value="" style="endArrow=classic;html=1;rounded=0;entryX=0.25;entryY=1;entryDx=0;entryDy=0;exitX=1;exitY=0;exitDx=0;exitDy=0;" edge="1" parent="1" source="hYtReZl3mpRaKV171oG1-118" target="hYtReZl3mpRaKV171oG1-141">
          <mxGeometry width="50" height="50" relative="1" as="geometry">
            <mxPoint x="601" y="19" as="sourcePoint" />
            <mxPoint x="598" y="-10" as="targetPoint" />
          </mxGeometry>
        </mxCell>
        <mxCell id="hYtReZl3mpRaKV171oG1-146" value="ID: Com" style="text;html=1;align=center;verticalAlign=middle;whiteSpace=wrap;rounded=0;fontSize=14;fontStyle=1" vertex="1" parent="1">
          <mxGeometry x="228.75" y="490" width="60" height="30" as="geometry" />
        </mxCell>
        <mxCell id="hYtReZl3mpRaKV171oG1-156" value="" style="endArrow=none;html=1;rounded=0;exitX=1;exitY=0.5;exitDx=0;exitDy=0;entryX=0;entryY=0.5;entryDx=0;entryDy=0;" edge="1" parent="1" source="hYtReZl3mpRaKV171oG1-1" target="hYtReZl3mpRaKV171oG1-18">
          <mxGeometry width="50" height="50" relative="1" as="geometry">
            <mxPoint x="430" y="180" as="sourcePoint" />
            <mxPoint x="480" y="130" as="targetPoint" />
          </mxGeometry>
        </mxCell>
        <mxCell id="hYtReZl3mpRaKV171oG1-166" value="Uno" style="edgeLabel;html=1;align=center;verticalAlign=middle;resizable=0;points=[];fontSize=14;fontStyle=1;fontColor=light-dark(#000000,#FF3333);" vertex="1" connectable="0" parent="hYtReZl3mpRaKV171oG1-156">
          <mxGeometry x="-0.8248" y="-1" relative="1" as="geometry">
            <mxPoint x="16" y="-16" as="offset" />
          </mxGeometry>
        </mxCell>
        <mxCell id="hYtReZl3mpRaKV171oG1-169" value="Varios" style="edgeLabel;html=1;align=center;verticalAlign=middle;resizable=0;points=[];fontSize=14;fontStyle=1;fontColor=light-dark(#000000,#FF3333);" vertex="1" connectable="0" parent="hYtReZl3mpRaKV171oG1-156">
          <mxGeometry x="0.7502" y="-1" relative="1" as="geometry">
            <mxPoint x="-110" y="12" as="offset" />
          </mxGeometry>
        </mxCell>
        <mxCell id="hYtReZl3mpRaKV171oG1-157" value="" style="endArrow=none;html=1;rounded=0;exitX=0.5;exitY=0;exitDx=0;exitDy=0;entryX=0.5;entryY=1;entryDx=0;entryDy=0;" edge="1" parent="1" source="hYtReZl3mpRaKV171oG1-1" target="hYtReZl3mpRaKV171oG1-26">
          <mxGeometry width="50" height="50" relative="1" as="geometry">
            <mxPoint x="430" y="180" as="sourcePoint" />
            <mxPoint x="480" y="130" as="targetPoint" />
          </mxGeometry>
        </mxCell>
        <mxCell id="hYtReZl3mpRaKV171oG1-162" value="Uno" style="edgeLabel;html=1;align=center;verticalAlign=middle;resizable=0;points=[];fontSize=14;fontStyle=1;fontColor=light-dark(#000000,#FF3333);" vertex="1" connectable="0" parent="hYtReZl3mpRaKV171oG1-157">
          <mxGeometry x="-0.8098" relative="1" as="geometry">
            <mxPoint x="20" y="-246" as="offset" />
          </mxGeometry>
        </mxCell>
        <mxCell id="hYtReZl3mpRaKV171oG1-163" value="Varios" style="edgeLabel;html=1;align=center;verticalAlign=middle;resizable=0;points=[];fontSize=14;fontStyle=1;fontColor=light-dark(#000000,#FF3333);" vertex="1" connectable="0" parent="hYtReZl3mpRaKV171oG1-157">
          <mxGeometry x="0.8033" y="-3" relative="1" as="geometry">
            <mxPoint x="27" y="180" as="offset" />
          </mxGeometry>
        </mxCell>
        <mxCell id="hYtReZl3mpRaKV171oG1-158" value="" style="endArrow=none;html=1;rounded=0;exitX=1;exitY=0;exitDx=0;exitDy=0;entryX=0;entryY=1;entryDx=0;entryDy=0;" edge="1" parent="1" source="hYtReZl3mpRaKV171oG1-1" target="hYtReZl3mpRaKV171oG1-11">
          <mxGeometry width="50" height="50" relative="1" as="geometry">
            <mxPoint x="430" y="180" as="sourcePoint" />
            <mxPoint x="480" y="130" as="targetPoint" />
          </mxGeometry>
        </mxCell>
        <mxCell id="hYtReZl3mpRaKV171oG1-164" value="Varios" style="edgeLabel;html=1;align=center;verticalAlign=middle;resizable=0;points=[];fontSize=14;fontStyle=1;fontColor=light-dark(#000000,#FF3333);" vertex="1" connectable="0" parent="hYtReZl3mpRaKV171oG1-158">
          <mxGeometry x="-0.8209" y="-2" relative="1" as="geometry">
            <mxPoint x="53" y="-22" as="offset" />
          </mxGeometry>
        </mxCell>
        <mxCell id="hYtReZl3mpRaKV171oG1-165" value="Uno" style="edgeLabel;html=1;align=center;verticalAlign=middle;resizable=0;points=[];fontSize=14;fontStyle=1;fontColor=light-dark(#000000,#FF3333);" vertex="1" connectable="0" parent="hYtReZl3mpRaKV171oG1-158">
          <mxGeometry x="0.6915" y="-5" relative="1" as="geometry">
            <mxPoint x="27" y="4" as="offset" />
          </mxGeometry>
        </mxCell>
        <mxCell id="hYtReZl3mpRaKV171oG1-160" value="" style="endArrow=classic;html=1;rounded=0;entryX=1;entryY=0.25;entryDx=0;entryDy=0;exitX=0;exitY=1;exitDx=0;exitDy=0;" edge="1" parent="1" source="hYtReZl3mpRaKV171oG1-1" target="hYtReZl3mpRaKV171oG1-146">
          <mxGeometry width="50" height="50" relative="1" as="geometry">
            <mxPoint x="430" y="180" as="sourcePoint" />
            <mxPoint x="480" y="130" as="targetPoint" />
          </mxGeometry>
        </mxCell>
        <mxCell id="hYtReZl3mpRaKV171oG1-161" value="" style="endArrow=classic;html=1;rounded=0;exitX=0;exitY=0;exitDx=0;exitDy=0;entryX=0.5;entryY=1;entryDx=0;entryDy=0;" edge="1" parent="1" source="hYtReZl3mpRaKV171oG1-11" target="hYtReZl3mpRaKV171oG1-13">
          <mxGeometry width="50" height="50" relative="1" as="geometry">
            <mxPoint x="430" y="180" as="sourcePoint" />
            <mxPoint x="480" y="130" as="targetPoint" />
          </mxGeometry>
        </mxCell>
        <mxCell id="hYtReZl3mpRaKV171oG1-170" value="Uno" style="edgeLabel;html=1;align=center;verticalAlign=middle;resizable=0;points=[];fontSize=14;fontStyle=1;fontColor=light-dark(#000000,#FF3333);" vertex="1" connectable="0" parent="1">
          <mxGeometry x="430" y="270" as="geometry">
            <mxPoint x="-45" y="-11" as="offset" />
          </mxGeometry>
        </mxCell>
        <mxCell id="hYtReZl3mpRaKV171oG1-171" value="Uno" style="edgeLabel;html=1;align=center;verticalAlign=middle;resizable=0;points=[];fontSize=14;fontStyle=1;fontColor=light-dark(#000000,#FF3333);" vertex="1" connectable="0" parent="1">
          <mxGeometry x="430" y="90" as="geometry">
            <mxPoint x="-45" y="-11" as="offset" />
          </mxGeometry>
        </mxCell>
        <mxCell id="hYtReZl3mpRaKV171oG1-172" value="Uno" style="edgeLabel;html=1;align=center;verticalAlign=middle;resizable=0;points=[];fontSize=14;fontStyle=1;fontColor=light-dark(#000000,#FF3333);" vertex="1" connectable="0" parent="1">
          <mxGeometry x="469.9998179994728" y="304.99586771395946" as="geometry" />
        </mxCell>
        <mxCell id="hYtReZl3mpRaKV171oG1-173" value="Uno" style="edgeLabel;html=1;align=center;verticalAlign=middle;resizable=0;points=[];fontSize=14;fontStyle=1;fontColor=light-dark(#000000,#FF3333);" vertex="1" connectable="0" parent="1">
          <mxGeometry x="589.9998179994727" y="194.99586771395946" as="geometry" />
        </mxCell>
        <mxCell id="hYtReZl3mpRaKV171oG1-175" value="Uno" style="edgeLabel;html=1;align=center;verticalAlign=middle;resizable=0;points=[];fontSize=14;fontStyle=1;fontColor=light-dark(#000000,#FF3333);" vertex="1" connectable="0" parent="1">
          <mxGeometry x="580.0026682354851" y="409.99860125404234" as="geometry" />
        </mxCell>
        <mxCell id="hYtReZl3mpRaKV171oG1-176" value="Uno" style="edgeLabel;html=1;align=center;verticalAlign=middle;resizable=0;points=[];fontSize=14;fontStyle=1;fontColor=light-dark(#000000,#FF3333);" vertex="1" connectable="0" parent="1">
          <mxGeometry x="580.0026682354851" y="379.99860125404234" as="geometry" />
        </mxCell>
        <mxCell id="hYtReZl3mpRaKV171oG1-178" value="ID: Cua" style="text;html=1;align=center;verticalAlign=middle;whiteSpace=wrap;rounded=0;fontSize=14;fontStyle=1" vertex="1" parent="1">
          <mxGeometry x="260" y="520" width="60" height="30" as="geometry" />
        </mxCell>
        <mxCell id="hYtReZl3mpRaKV171oG1-179" value="ID: Cue" style="text;html=1;align=center;verticalAlign=middle;whiteSpace=wrap;rounded=0;fontSize=14;fontStyle=1" vertex="1" parent="1">
          <mxGeometry x="320" y="540" width="60" height="30" as="geometry" />
        </mxCell>
        <mxCell id="hYtReZl3mpRaKV171oG1-180" value="" style="endArrow=classic;html=1;rounded=0;entryX=1;entryY=0;entryDx=0;entryDy=0;" edge="1" parent="1" source="hYtReZl3mpRaKV171oG1-1" target="hYtReZl3mpRaKV171oG1-178">
          <mxGeometry width="50" height="50" relative="1" as="geometry">
            <mxPoint x="392" y="433" as="sourcePoint" />
            <mxPoint x="299" y="508" as="targetPoint" />
          </mxGeometry>
        </mxCell>
        <mxCell id="hYtReZl3mpRaKV171oG1-181" value="" style="endArrow=classic;html=1;rounded=0;entryX=0.5;entryY=0;entryDx=0;entryDy=0;" edge="1" parent="1" source="hYtReZl3mpRaKV171oG1-1" target="hYtReZl3mpRaKV171oG1-179">
          <mxGeometry width="50" height="50" relative="1" as="geometry">
            <mxPoint x="402" y="443" as="sourcePoint" />
            <mxPoint x="330" y="530" as="targetPoint" />
          </mxGeometry>
        </mxCell>
        <mxCell id="hYtReZl3mpRaKV171oG1-182" value="Pepito" style="shape=umlActor;verticalLabelPosition=bottom;verticalAlign=top;html=1;outlineConnect=0;" vertex="1" parent="1">
          <mxGeometry x="70" y="-230" width="150" height="220" as="geometry" />
        </mxCell>
      </root>
    </mxGraphModel>
  </diagram>
</mxfile>
